<svg xmlns="http://www.w3.org/2000/svg" xmlns:xlink="http://www.w3.org/1999/xlink" width="1080" zoomAndPan="magnify" viewBox="0 0 810 809.999993" height="1080" preserveAspectRatio="xMidYMid meet" version="1.0"><path fill="#ffffff" d="M 168.75 675 L 168.75 366.1875 L 74.25 438.75 L 33.75 384.75 L 405 101.25 L 540 204.1875 L 540 135 L 641.25 135 L 641.25 281.8125 L 776.25 384.75 L 735.75 438.75 L 641.25 366.1875 L 641.25 675 L 438.75 675 L 438.75 472.5 L 371.25 472.5 L 371.25 675 Z M 236.25 607.5 L 303.75 607.5 L 303.75 405 L 506.25 405 L 506.25 607.5 L 573.75 607.5 L 573.75 314.71875 L 405 186.46875 L 236.25 314.71875 Z M 337.5 338.34375 L 472.5 338.34375 C 472.5 320.34375 465.75 305.578125 452.25 294.046875 C 438.75 282.515625 423 276.75 405 276.75 C 387 276.75 371.25 282.515625 357.75 294.046875 C 344.25 305.578125 337.5 320.34375 337.5 338.34375 Z M 303.75 607.5 L 303.75 405 L 506.25 405 L 506.25 607.5 L 506.25 405 L 303.75 405 Z M 303.75 607.5 " fill-opacity="1" fill-rule="nonzero"/></svg>